<?xml version="1.0" standalone="no"?><!DOCTYPE svg PUBLIC "-//W3C//DTD SVG 1.1//EN" "http://www.w3.org/Graphics/SVG/1.1/DTD/svg11.dtd"><svg t="1700894063078" class="icon" viewBox="0 0 1024 1024" version="1.1" xmlns="http://www.w3.org/2000/svg" p-id="4408" xmlns:xlink="http://www.w3.org/1999/xlink" width="32" height="32"><path d="M0 512C0 229.2224 229.2224 0 512 0c282.7776 0 512 229.2224 512 512 0 282.7776-229.2224 512-512 512C229.2224 1024 0 794.7776 0 512z m723.0976-290.133333H317.952C283.818667 221.866667 256 249.344 256 283.392v403.797333c0 34.048 27.818667 61.525333 61.969067 61.525334H660.821333l-16.008533-55.2448 38.690133 35.5328 36.573867 33.450666L785.066667 819.2V283.392C785.066667 249.344 757.248 221.866667 723.0976 221.866667z" fill="#FFFFFF" p-id="4409"></path><path d="M606.378667 611.925333s-10.871467-12.834133-19.933867-24.183466c39.594667-11.0592 54.715733-35.549867 54.715733-35.549867-12.3904 8.072533-24.183467 13.738667-34.7648 17.629867-15.121067 6.263467-29.627733 10.4448-43.844266 12.834133-29.013333 5.376-55.637333 3.874133-78.301867-0.290133a256.136533 256.136533 0 0 1-44.4416-12.8512 178.176 178.176 0 0 1-22.0672-10.154667c-0.904533-0.597333-1.809067-0.904533-2.730667-1.4848a4.164267 4.164267 0 0 1-1.194666-0.904533c-5.444267-2.986667-8.465067-5.0688-8.465067-5.0688s14.506667 23.893333 52.906667 35.242666c-9.079467 11.349333-20.258133 24.7808-20.258134 24.7808-66.816-2.082133-92.2112-45.397333-92.2112-45.397333 0-96.170667 43.537067-174.1312 43.537067-174.1312 43.52-32.256 84.957867-31.351467 84.957867-31.351467l3.0208 3.584c-54.4256 15.530667-79.5136 39.133867-79.5136 39.133867s6.656-3.584 17.834666-8.669867c32.3584-14.0288 58.043733-17.92 68.625067-18.807466 1.826133-0.3072 3.328-0.597333 5.137067-0.597334a258.901333 258.901333 0 0 1 61.0816-0.6144c28.7232 3.293867 59.562667 11.656533 90.999466 28.672 0 0-23.893333-22.391467-75.281066-37.922133l4.232533-4.778667s41.4208-0.904533 84.957867 31.351467c0 0 43.52 77.960533 43.52 174.1312 0 0-25.685333 43.3152-92.501334 45.397333zM474.350933 477.866667C457.216 477.866667 443.733333 493.226667 443.733333 512s13.789867 34.133333 30.600534 34.133333c17.083733 0 30.583467-15.36 30.583466-34.133333 0.3072-18.773333-13.482667-34.133333-30.583466-34.133333z m109.4656 0c-17.083733 0-30.583467 15.36-30.583466 34.133333s13.789867 34.133333 30.583466 34.133333C600.917333 546.133333 614.4 530.773333 614.4 512s-13.482667-34.133333-30.600533-34.133333z" fill="#FFFFFF" p-id="4410"></path></svg>